<?xml version="1.0" encoding="UTF-8"?>
<svg width="123px" height="24px" viewBox="0 0 123 24" version="1.1" xmlns="http://www.w3.org/2000/svg" xmlns:xlink="http://www.w3.org/1999/xlink">
    <!-- Generator: Sketch 44 (41411) - http://www.bohemiancoding.com/sketch -->
    <title>Page 1</title>
    <desc>Created with Sketch.</desc>
    <defs>
        <polygon id="path-1" points="0.0152 16 16.0152 16 16.0152 0.0190222222 0.0152 0.0190222222"></polygon>
    </defs>
    <g id="页面" stroke="none" stroke-width="1" fill="none" fill-rule="evenodd">
        <g id="首页结构" transform="translate(-130.000000, -4417.000000)">
            <g id="Group-15" transform="translate(0.000000, 4389.000000)">
                <g id="Group-6">
                    <g id="Page-1" transform="translate(130.000000, 28.000000)">
                        <polygon id="Fill-1" fill="#9097A5" points="5.4608 3.3224 0.000355555556 7.29395556 1.99946667 9.95795556 3.99946667 8.65662222 4.00035556 23.3055111 7.33368889 23.3055111 7.33368889 3.3224"></polygon>
                        <g id="Group-11" transform="translate(9.777778, 0.000000)">
                            <path d="M17.1058667,9.43031111 C15.8098667,7.36275556 13.5103111,5.98675556 10.8889778,5.98675556 C6.83831111,5.98675556 3.55564444,9.26764444 3.55564444,13.3138667 C3.55564444,17.3609778 6.83831111,20.6409778 10.8889778,20.6409778 C14.3387556,20.6409778 17.2303111,18.2605333 18.0125333,15.0543111 L20.1885333,18.5325333 C18.3600889,21.7778667 14.8818667,23.9716444 10.8889778,23.9716444 C4.99831111,23.9716444 0.222311111,19.2000889 0.222311111,13.3138667 C0.222311111,7.42853333 4.99831111,2.65608889 10.8889778,2.65608889 C14.7023111,2.65608889 18.0472,4.65786667 19.9325333,7.66497778 L26.0054222,17.1983111 C27.3014222,19.2649778 29.6009778,20.6409778 32.2223111,20.6409778 C36.2720889,20.6409778 39.5556444,17.3609778 39.5556444,13.3138667 C39.5556444,9.26764444 36.2720889,5.98675556 32.2223111,5.98675556 C28.7725333,5.98675556 25.8809778,8.36808889 25.0987556,11.5743111 L22.9227556,8.09608889 C24.7512,4.85075556 28.2294222,2.65608889 32.2223111,2.65608889 C38.1129778,2.65608889 42.8889778,7.42853333 42.8889778,13.3138667 C42.8889778,19.2000889 38.1129778,23.9716444 32.2223111,23.9716444 C28.4089778,23.9716444 25.0640889,21.9707556 23.1787556,18.9636444 L17.1058667,9.43031111 Z" id="Fill-2" fill="#9097A5"></path>
                            <path d="M107.555556,10.508 L107.555556,8.65644444 L104.888889,8.65644444 L104.888889,15.9808889 L104.888889,23.3053333 L107.555556,23.3053333 L107.555556,15.9808889 C107.555556,13.0395556 109.944,10.6546667 112.888889,10.6546667 L112.888889,7.99066667 C110.784889,7.99066667 108.893333,8.96133333 107.555556,10.508" id="Fill-4" fill="#9097A5"></path>
                            <g id="Group-8" transform="translate(86.222222, 8.000000)">
                                <mask id="mask-2" fill="white">
                                    <use xlink:href="#path-1"></use>
                                </mask>
                                <g id="Clip-7"></g>
                                <path d="M3.07208889,6.01191111 C3.86408889,4.0608 5.77697778,2.68213333 8.0152,2.68213333 C10.2516444,2.68213333 12.1645333,4.0608 12.9565333,6.01191111 L3.07208889,6.01191111 Z M8.0152,0.0190222222 C3.59653333,0.0190222222 0.0152,3.5968 0.0152,8.00924444 C0.0152,12.4225778 3.59653333,16.0003556 8.0152,16.0003556 C11.2409778,16.0003556 14.0152,14.0874667 15.2800889,11.3390222 L12.1734222,11.3390222 C11.1965333,12.5559111 9.69786667,13.3363556 8.0152,13.3363556 C5.2952,13.3363556 3.0552,11.3025778 2.7272,8.67591111 L15.9805333,8.67591111 C15.9992,8.45546667 16.0152,8.23413333 16.0152,8.00924444 C16.0152,3.5968 12.4320889,0.0190222222 8.0152,0.0190222222 L8.0152,0.0190222222 Z" id="Fill-6" fill="#9097A5" mask="url(#mask-2)"></path>
                            </g>
                            <path d="M86.2222222,8.64426667 L82.2222222,8.64426667 L82.2222222,5.3136 C82.2222222,3.17671111 84.7822222,1.90915556 86.4862222,3.19182222 L87.3466667,0.610488889 C85.7208889,-0.240177778 83.8124444,-0.201066667 82.2222222,0.723377778 C81.4222222,1.18915556 80.7608889,1.8496 80.2951111,2.64871111 C79.8364444,3.43626667 79.5555556,4.3376 79.5555556,5.3136 L79.5555556,8.64426667 L74.2222222,8.64426667 L74.2222222,5.3136 C74.2222222,3.17671111 76.7822222,1.90915556 78.4862222,3.19182222 L79.3466667,0.610488889 C77.7208889,-0.240177778 75.8124444,-0.201066667 74.2222222,0.723377778 C73.4222222,1.18915556 72.7608889,1.8496 72.2951111,2.64871111 C71.8364444,3.43626667 71.5555556,4.3376 71.5555556,5.3136 L71.5555556,8.64426667 L62.8888889,8.64426667 L56.8942222,14.6336 L54.2275556,11.9696 L52.2275556,13.9678222 L56.8942222,18.6300444 L64.2222222,11.3082667 L64.6293333,11.3082667 C65.9191111,16.2931556 62.0355556,21.2993778 56.8888889,21.2993778 C51.464,21.2993778 47.5342222,15.7784889 49.3537778,10.6424889 C51.0222222,5.93404444 56.7848889,3.88693333 61.0471111,6.48782222 L62.976,4.56071111 C56.9724444,0.382044444 48.392,3.58915556 46.5724444,10.6424889 C44.8577778,17.2833778 50.0266667,23.9642667 56.8888889,23.9642667 C63.4533333,23.9642667 68.624,17.7687111 67.3564444,11.3082667 L71.5555556,11.3082667 L71.5555556,23.2976 L74.2222222,23.2976 L74.2222222,11.3082667 L79.5555556,11.3082667 L79.5555556,23.2976 L82.2222222,23.2976 L82.2222222,11.3082667 L86.2222222,11.3082667 L86.2222222,8.64426667 Z" id="Fill-9" fill="#9097A5"></path>
                        </g>
                    </g>
                </g>
            </g>
        </g>
    </g>
</svg>